<svg xmlns="http://www.w3.org/2000/svg" viewBox="0 0 100 100">
  <circle cx="50" cy="50" r="46" fill="#FFF0F3" stroke="#E91E8C" stroke-width="4"/>
  <path d="M30 55 L70 55 L70 65 Q70 70 65 70 L35 70 Q30 70 30 65 Z" fill="#F48FB1"/>
  <path d="M30 55 L70 55 L70 50 Q70 45 65 45 L35 45 Q30 45 30 50 Z" fill="#E91E8C"/>
  <circle cx="40" cy="40" r="3" fill="#E91E8C"/>
  <circle cx="50" cy="38" r="3" fill="#E91E8C"/>
  <circle cx="60" cy="40" r="3" fill="#E91E8C"/>
  <path d="M50 25 C48 21 44 21 44 25 C44 28 50 32 50 32 C50 32 56 28 56 25 C56 21 52 21 50 25 Z" fill="#E91E8C"/>
</svg>
